<svg xmlns="http://www.w3.org/2000/svg" width="400" height="172" viewBox="0 0 0 0 400 0 172">
    <path d="M99.031 128.322l6.346-1.377q1.142 5.48 8.763 5.48 3.479 0 5.351-1.404 1.872-1.403 1.872-3.482 0-1.511-.849-2.794-.85-1.282-3.638-2.011l-6.931-1.835q-3.559-.945-5.258-2.146-1.7-1.202-2.722-3.388-1.022-2.187-1.022-4.67 0-4.94 3.611-7.923 3.612-2.982 9.241-2.982 4.674 0 8.352 2.078 3.678 2.079 4.687 5.885l-6.214 1.565q-1.434-4.184-6.692-4.184-3.054 0-4.66 1.296-1.607 1.296-1.607 3.293 0 3.159 5.046 4.427l6.16 1.566q5.603 1.431 7.515 4.224 1.912 2.794 1.912 6.169 0 5.425-4.023 8.543-4.023 3.118-10.423 3.118-5.39 0-9.44-2.295-4.05-2.294-5.377-7.153zM150.601 128.511l5.47.756q-1.062 3.698-4.143 6.1-3.08 2.403-7.727 2.403-5.577 0-8.976-3.806-3.399-3.806-3.399-10.312 0-6.181 3.426-10.231 3.425-4.049 9.294-4.049 5.736 0 8.869 3.995 3.134 3.996 3.134 10.258l-.027.702H138.12q0 2.78.518 4.454.517 1.674 2.058 2.915 1.54 1.242 3.85 1.242 4.488 0 6.055-4.427zm-.372-8.152q-.027-2.942-1.74-4.805-1.712-1.863-4.235-1.863-2.496 0-4.169 1.741-1.673 1.742-1.965 4.927zM167.289 137.203h-6.054v-27.264h5.47v6.506q1.168-3.806 3.213-5.561t4.196-1.755q.292 0 .797.027v6.614q-4.621 0-6.121 2.996-1.501 2.997-1.501 5.804zM200.749 109.939l-9.109 27.264h-5.019l-9.321-27.264h6.321l6.267 18.491 6.107-18.491zM221.302 128.511l5.47.756q-1.062 3.698-4.142 6.1-3.08 2.403-7.728 2.403-5.576 0-8.975-3.806t-3.399-10.312q0-6.181 3.425-10.231 3.426-4.049 9.295-4.049 5.736 0 8.869 3.995 3.133 3.996 3.133 10.258l-.026.702h-18.403q0 2.78.518 4.454t2.058 2.915q1.54 1.242 3.851 1.242 4.487 0 6.054-4.427zm-.372-8.152q-.026-2.942-1.739-4.805-1.713-1.863-4.235-1.863-2.497 0-4.17 1.741-1.673 1.742-1.965 4.927zM238.514 137.203h-6.054v-27.264h5.47v6.506q1.169-3.806 3.213-5.561 2.045-1.755 4.196-1.755.292 0 .797.027v6.614q-4.621 0-6.121 2.996-1.501 2.997-1.501 5.804zM267.719 137.203h-6.533v-36.847h14.845q6.346 0 9.413 3.253t3.067 7.68q0 5.048-3.319 8.179-3.319 3.131-8.418 3.131h-9.055zm0-20.299h7.727q3.028 0 4.621-1.512 1.593-1.512 1.593-4.022 0-2.268-1.474-3.887-1.473-1.62-5.324-1.62h-7.143zM315.261 137.203h-5.762q-.77-2.483-.929-5.507-2.417 6.074-9.082 6.074-4.01 0-6.44-2.389-2.43-2.389-2.43-6.006 0-9.394 16.226-9.394.637 0 1.726.027v-2.052q0-4.238-5.683-4.238-5.524 0-6.267 4.238l-5.152-.782q.425-3.402 3.452-5.602 3.028-2.2 8.763-2.2 3.107 0 5.072.527 1.966.526 3.32 1.781 1.354 1.256 1.872 2.727.518 1.471.518 4.98v12.309q0 2.673.796 5.507zm-6.691-13.875q-11.738 0-11.738 5.696 0 1.7 1.182 2.902 1.182 1.201 3.572 1.201 3.452 0 5.218-2.227t1.766-5.061zM346.172 104.729v4.724h-1.859q-1.222 0-2.138.297-.916.297-1.792 1.917 3.186 2.645 3.186 5.884 0 3.618-2.987 5.993-2.988 2.376-7.9 2.376-2.125 0-4.966-.702-1.859.864-1.859 2.672 0 .999.903 1.836.903.836 2.735.836h7.966q4.09 0 6.414 2.146 2.323 2.147 2.323 5.332 0 3.86-3.518 6.397-3.519 2.538-10.423 2.538-12.986 0-12.986-7.37 0-3.644 3.904-5.533-2.496-2.16-2.496-4.508 0-3.563 4.275-5.669-3.718-2.294-3.718-6.317 0-3.401 2.735-5.803 2.736-2.403 8.312-2.403 2.55 0 5.178.567 1.222-5.21 6.453-5.21zm-13.756 17.546q4.939 0 4.939-4.724 0-1.808-1.235-3.05-1.234-1.242-3.598-1.242-2.39 0-3.704 1.296-1.315 1.296-1.315 3.239 0 1.998 1.302 3.24 1.301 1.241 3.611 1.241zm-6.639 13.443q-1.301 1.215-1.301 2.349 0 1.862 2.178 3.279 2.177 1.418 6.93 1.418 6.984 0 6.984-3.644 0-1.35-1.221-2.039-1.222-.688-2.788-.688h-6.427q-1.832 0-4.355-.675zM366.938 128.511l5.47.756q-1.062 3.698-4.143 6.1-3.08 2.403-7.727 2.403-5.577 0-8.976-3.806-3.399-3.806-3.399-10.312 0-6.181 3.426-10.231 3.425-4.049 9.294-4.049 5.736 0 8.869 3.995 3.134 3.996 3.134 10.258l-.027.702h-18.402q0 2.78.518 4.454.517 1.674 2.058 2.915 1.54 1.242 3.85 1.242 4.488 0 6.055-4.427zm-.372-8.152q-.027-2.942-1.74-4.805-1.712-1.863-4.235-1.863-2.496 0-4.169 1.741-1.673 1.742-1.965 4.927zM375.143 130.94l5.683-1.106q1.301 3.32 5.736 3.32 5.629 0 5.629-3.374 0-1.08-.876-1.782t-2.071-.945l-4.886-.944q-8.126-1.593-8.126-8.072 0-3.617 2.576-6.141t7.674-2.524q8.498 0 10.383 6.344l-5.391 1.107q-.849-3.078-4.833-3.078-4.833 0-4.833 3.078 0 2.132 3.904 2.942l5.762 1.215q6.719 1.403 6.719 7.828 0 4.508-3.452 6.735-3.452 2.227-8.206 2.227-4.116 0-7.276-1.687t-4.116-5.143zM293.639 90.087h-6.984l-2.894-8.773H269.82l-2.842 8.773h-5.576l12.029-36.847h8.046zm-11.631-14.091l-5.284-16.439-5.285 16.439zM312.759 80.072l5.205.54q-1.009 5.129-3.904 7.585-2.894 2.456-6.984 2.456-5.55 0-8.537-4.116-2.988-4.117-2.988-10.082 0-6.155 3.267-10.177 3.266-4.022 8.71-4.022 8.763 0 10.436 9.394l-5.205.729q-.69-5.075-4.913-5.075-3.08 0-4.474 2.74-1.394 2.74-1.394 6.627 0 4.13 1.447 6.37 1.447 2.241 4.05 2.241 3.983 0 5.284-5.21zM335.039 85.282v4.805q-2.709.593-4.196.593-2.443 0-4.196-.985-1.752-.985-2.562-2.699-.81-1.714-.81-5.278V67.601h-3.346v-4.778h3.691l.558-7.1 4.966-.458v7.558h5.39v4.778h-5.39v13.308q0 2.564.916 3.495.916.932 3.465.932.717 0 1.514-.054zM346.165 59.638h-6.054V53.24h6.054zm0 30.449h-6.054V62.823h6.054zM373.623 62.823l-9.108 27.264h-5.019l-9.321-27.264h6.32l6.267 18.491 6.108-18.491zM391.664 81.395l5.47.755q-1.062 3.699-4.142 6.101-3.081 2.402-7.728 2.402-5.576 0-8.975-3.806t-3.399-10.311q0-6.182 3.425-10.231 3.426-4.049 9.294-4.049 5.736 0 8.87 3.995 3.133 3.995 3.133 10.258l-.026.702h-18.403q0 2.78.518 4.454.518 1.673 2.058 2.915 1.54 1.242 3.85 1.242 4.488 0 6.055-4.427zm-.372-8.153q-.026-2.942-1.739-4.804-1.713-1.863-4.236-1.863-2.496 0-4.169 1.741-1.673 1.741-1.965 4.926zM78.742 82.129h-15.49l-6.419-19.141h-30.92l-6.302 19.141H7.243L33.922 1.737h17.846zM52.946 51.386l-11.72-35.868-11.721 35.868zM79.979 62.753l14.076-3.004q2.532 11.956 19.435 11.956 7.716 0 11.868-3.063 4.152-3.062 4.152-7.597 0-3.299-1.885-6.096-1.884-2.798-8.068-4.388l-15.372-4.005q-7.892-2.061-11.662-4.682-3.769-2.621-6.036-7.391-2.268-4.771-2.268-10.189 0-10.778 8.01-17.286Q100.239.5 112.725.5q10.365 0 18.522 4.535 8.157 4.535 10.395 12.839l-13.781 3.416q-3.181-9.129-14.842-9.129-6.773 0-10.336 2.827-3.563 2.827-3.563 7.186 0 6.89 11.19 9.658l13.664 3.416q12.427 3.122 16.667 9.217 4.241 6.096 4.241 13.458 0 11.838-8.923 18.641-8.923 6.802-23.117 6.802-11.955 0-20.937-5.006-8.981-5.006-11.926-15.607zM171.797 82.129h-14.488V1.737h32.922q14.076 0 20.879 7.097 6.802 7.097 6.802 16.755 0 11.014-7.362 17.846-7.362 6.832-18.67 6.832h-20.083zm0-44.289h17.138q6.715 0 10.248-3.298 3.534-3.299 3.534-8.776 0-4.947-3.269-8.481-3.268-3.534-11.808-3.534h-15.843z" fill="#fff" />
    <path d="M1 155.951h78.737v15.078H1v-15.078z" fill="#73D041"/>
    <path d="M95.336 155.951h78.737v15.078H95.336v-15.078z" fill="#FAD13B"/>
    <path d="M189.672 155.951h78.737v15.078h-78.737v-15.078z" fill="#EF4730"/>
    <path d="M318.876 155.951h78.736v15.078h-78.736v-15.078z" fill="#41AAFA"/>
</svg>