<svg xmlns="http://www.w3.org/2000/svg" id="Layer_1" x="0" y="0" version="1.1" viewBox="0 0 200 32" xml:space="preserve" data-inject-url="https://web.autocad.com/dfbd937c6576366928f53fb9116bcc79.svg" class="sc-iRbamj bXJcce logo" theme="[object Object]">
<path d="M44.12256 18.42097h-4.19489l-1.04448 3.31855h-1.18317l3.51838-10.75499h1.58285l3.62595 10.75499h-1.19846L44.12256 18.42097zM40.23507 17.4682h3.58009l-1.81326-5.63904L40.23507 17.4682zM56.10374 10.98452v10.75499h-1.02976l-.07642-1.33659c-.59951.70651-1.62927 1.52114-3.30383 1.52114-2.35049 0-3.36497-1.6287-3.36497-3.6418v-7.29774h1.1526v7.34416c0 1.47472.62952 2.65789 2.44277 2.65789 1.59813 0 2.48919-.90635 3.027-1.75155v-8.25051H56.10374zM66.08542 11.93672h-3.21098v9.80279h-1.1526v-9.80279h-3.19627v-.9522h7.55985V11.93672zM76.05691 15.20941v2.36635c0 2.4122-1.29073 4.3483-4.17903 4.3483s-4.17904-1.9361-4.17904-4.3483v-2.36635c0-2.53505 1.30602-4.40944 4.17904-4.40944C74.78203 10.79997 76.05691 12.72022 76.05691 15.20941zM68.85144 15.19413v2.4122c0 1.88968.89106 3.38025 3.02644 3.38025s3.027-1.49057 3.027-3.38025v-2.4122c0-1.98196-.89162-3.45724-3.027-3.45724C69.77307 11.73689 68.85144 13.1816 68.85144 15.19413zM86.46148 15.28641v1.8744c0 2.81188-1.65928 4.57871-4.73213 4.57871h-1.96667-.70651V10.98452h1.15204 1.90497C85.00147 10.98452 86.46148 12.70494 86.46148 15.28641zM85.30944 15.25584c0-2.05895-1.09147-3.3344-3.25741-3.3344h-1.84383v8.88059h1.52114c2.35049 0 3.58009-1.2596 3.58009-3.61066V15.25584zM90.56522 11.92144v3.8105h4.33302v.95277h-4.33302v4.11733h4.67043v.93748h-5.79246-.03057V10.98452h1.1526 4.67043v.93691H90.56522zM97.31327 18.77422h1.10618c.077 1.18317.7835 2.19708 2.85773 2.19708 2.07423 0 2.59618-1.02919 2.59618-1.82854v-.35325c0-1.0909-.64536-1.49057-2.25822-2.01253l-1.55171-.50724c-1.65984-.55309-2.33578-1.24431-2.33578-2.55033v-.33797c0-1.1526.9839-2.58147 3.59594-2.58147 2.44221 0 3.62538 1.3213 3.70237 3.027h-1.10618c-.077-1.04504-.69179-2.09008-2.59619-2.09008-1.85911 0-2.42805.93748-2.42805 1.64455v.30683c0 .79935.4761 1.26016 1.95139 1.73626l1.55171.49195c1.73626.55309 2.62732 1.27488 2.62732 2.79603v.38439c0 1.44415-1.05976 2.82716-3.74879 2.82716C98.74213 21.92406 97.43555 20.64861 97.31327 18.77422zM115.7368 20.92544l-.01585.79878c-.15341.07699-.36854.12285-.62951.12285-.70708 0-1.12204-.24569-1.64399-.99862l-2.91944-4.27131-1.52114 1.90496v3.25741h-1.10618V10.98452h1.10618v5.93058l4.71684-5.93058h1.26016l-3.74879 4.7627 3.21098 4.64042c.30683.43024.5378.58366.96805.56837C115.5364 20.95601 115.65981 20.94073 115.7368 20.92544zM118.5934 12.12467v.38326c0 .64933-.50044 1.11014-1.27375 1.11014-.72009 0-1.26582-.46081-1.26582-1.11014v-.38326c0-.578.55705-1.07448 1.27262-1.07448C118.09296 11.05019 118.5934 11.54667 118.5934 12.12467zM118.40885 12.12128c0-.48969-.41892-.90804-1.08581-.90804-.60913 0-1.08127.41836-1.08127.90804v.39005c0 .56045.46082.94371 1.08127.94371.66689 0 1.08581-.38326 1.08581-.94371V12.12128zM117.92992 12.94044c.0068 0 .02151-.0034.03171-.0034v.14209c-.02831.01076-.0668.01755-.11323.01755-.09624-.0034-.16983-.03906-.22305-.14549l-.24909-.46817c-.02038.0034-.03849.0034-.06001.0034h-.20947v.59272h-.19814v-1.49001h.19814.23098c.31249 0 .51063.15964.51063.39005v.10643c0 .17776-.10303.30513-.27626.36231l.22645.42175C117.82689 12.92289 117.86311 12.94044 117.92992 12.94044zM117.65026 12.07542v-.08888c0-.15964-.13474-.23437-.31929-.23437h-.22418v.56781h.20267C117.51099 12.31998 117.65026 12.23846 117.65026 12.07542zM130.10132 18.91235h-3.71822l-.81406 2.82716h-1.95082l3.28797-10.75499h2.62676l3.45781 10.75499h-1.99724L130.10132 18.91235zM126.81334 17.36064h2.82716l-1.42886-5.02424L126.81334 17.36064zM142.69164 10.98452v10.75499h-1.70512l-.12341-.99862c-.61479.63008-1.55228 1.19846-2.91887 1.19846-2.33578 0-3.51895-1.58285-3.51895-3.67237v-7.28246h1.95195v7.35945c0 1.22903.53668 2.1048 1.99724 2.1048 1.13676 0 1.87384-.55309 2.38107-1.21374v-8.25051H142.69164zM152.65181 12.47453h-3.01172v9.26498h-1.93497v-9.26498h-3.02757v-1.49001h4.96254 3.01172V12.47453zM162.88031 15.16356v2.4122c0 2.50448-1.45944 4.36359-4.42473 4.36359-2.93472 0-4.41-1.85911-4.41-4.36359v-2.4122c0-2.53505 1.45943-4.37887 4.41-4.37887C161.42087 10.78469 162.88031 12.62851 162.88031 15.16356zM155.98167 15.14827v2.45806c0 1.69041.78349 2.84245 2.47391 2.84245 1.68927 0 2.47278-1.15204 2.47278-2.84245v-2.45806c0-1.73626-.79822-2.87358-2.47278-2.87358C156.77989 12.27469 155.98167 13.41201 155.98167 15.14827zM164.98285 17.92901v-3.13456c0-2.35049 1.47528-4.00977 4.13261-4.00977 2.52032 0 3.78049 1.44415 3.82578 3.31855h-1.82854c-.06114-1.16789-.64537-1.82854-1.99724-1.82854-1.41301 0-2.16594.96805-2.16594 2.39692v3.38025c0 1.42887.75293 2.38163 2.13536 2.38163 1.41415 0 1.99725-.69122 2.05952-1.84383h1.84326c-.15399 1.98196-1.35188 3.34968-3.9492 3.34968C166.51927 21.93935 164.98285 20.28008 164.98285 17.92901zM180.61432 18.91235h-3.71822l-.81407 2.82716h-1.95082l3.28798-10.75499h2.62675l3.45781 10.75499h-1.99724L180.61432 18.91235zM177.32634 17.36064h2.82716l-1.42886-5.02424L177.32634 17.36064zM193.39598 15.28641v1.90497c0 2.79659-1.65871 4.54814-4.76326 4.54814h-1.82741-1.30658V10.98452h1.9361 1.58286C191.93655 10.98452 193.39598 12.70494 193.39598 15.28641zM191.45988 15.24055c0-1.75212-.82878-2.76602-2.53505-2.76602h-1.49001v7.77441h1.21375c1.87495 0 2.81131-.98334 2.81131-3.02643V15.24055zM196.99306 12.12467v.38326c0 .64933-.49931 1.11014-1.27261 1.11014-.72009 0-1.26697-.46081-1.26697-1.11014v-.38326c0-.578.55705-1.07448 1.27376-1.07448C196.49374 11.05019 196.99306 11.54667 196.99306 12.12467zM196.8085 12.12128c0-.48969-.41779-.90804-1.08467-.90804-.61026 0-1.0824.41836-1.0824.90804v.39005c0 .56045.46194.94371 1.0824.94371.66689 0 1.08467-.38326 1.08467-.94371V12.12128zM196.3307 12.94044c.00679 0 .02039-.0034.03171-.0034v.14209c-.02831.01076-.06793.01755-.11322.01755-.09624-.0034-.17097-.03906-.22418-.14549l-.24796-.46817c-.02151.0034-.03963.0034-.06001.0034h-.20946v.59272h-.19928v-1.49001h.19928.22984c.31248 0 .51176.15964.51176.39005v.10643c0 .17776-.10304.30513-.2774.36231l.22758.42175C196.22768 12.92289 196.26277 12.94044 196.3307 12.94044zM196.04991 12.07542v-.08888c0-.15964-.13474-.23437-.31927-.23437h-.22305v.56781h.20154C195.91179 12.31998 196.04991 12.23846 196.04991 12.07542z" class="logoText" style="fill:#FFFFFF;"></path><path d="M5.7291,29.36053l-1.39951-0.61246c0.14148-0.76956,0.52885-2.33303,1.09772-4.42909 c0.02835-0.10443,0.05706-0.20976,0.08609-0.31601c0.14001-0.51262,0.29071-1.05623,0.44791-1.61579 c0.11062-0.39354,0.2243-0.79447,0.33792-1.19172c0.75939-2.65425,1.74568-5.51455,2.46583-7.60307 c0.1068-0.30973,0.20868-0.60522,0.30427-0.88385c1.47844-4.30885,3.9689-8.99067,4.28973-9.58707h5.70911 c0.21813,0.35345,1.44604,2.41039,3.27488,6.77443c0.06018,0.1437,0.12371,0.29323,0.18951,0.44811 c0.30006,0.70617,0.64015,1.50657,0.93427,2.38085c0.19789,0.58795,0.43358,1.19603,0.68311,1.83982 c0.35707,0.92123,0.72633,1.87384,1.00466,2.82731c0.36758,1.25885,0.75144,2.62053,1.1736,4.16293 c0.35141,1.28403,0.65915,2.4364,0.90644,3.3623c0.31271,1.17023,0.51928,1.94336,0.5834,2.11507 c0.12261,0.32836,0.4001,1.42761,0.4882,1.78081l-1.36744,0.43623l-0.0037,0.00178l-3.12715,0.25106l-1.58254-1.07579 c-0.00528-0.24248-0.03966-1.13638-0.26126-2.22989c-0.20968-1.03445-0.48796-2.26418-1.09898-4.24081l-0.02964-0.09586 l-0.0997,0.01094c-2.96254,0.32548-6.04358,0.75453-9.15757,1.27535l-0.08308,0.01393l-0.01611,0.08275 c-0.06412,0.3296-0.12207,0.63713-0.17159,0.89982c-0.07328,0.38898-0.13119,0.69617-0.15823,0.80284 c-0.10525,0.41547-0.17557,2.88298-0.18752,3.33066l-2.10085,1.29999L5.7291,29.36053z M16.30957,10.08445 c-0.13232,0-0.38034,0.07359-0.55472,0.56638c-0.74671,2.11037-1.35145,3.66045-1.83735,4.90594 c-0.26022,0.66698-0.48495,1.24304-0.66232,1.73115l-0.11061,0.30438l0.2835-0.15655 c0.17672-0.09757,0.35522-0.19552,0.53539-0.29368c1.40653-0.76635,2.76779-1.46659,4.04582-2.08127 c0.10498-0.05052,0.2101-0.10083,0.31525-0.15076l0.09956-0.04731l-0.03746-0.10369 c-0.74492-2.06272-1.38291-3.78483-1.55147-4.18781C16.658,10.1477,16.42982,10.08445,16.30957,10.08445z" class="st0" style="fill:#d22;"></path><radialGradient id="SVGID_1_--inject-46" cx="76.072" cy="353.938" r="22.658" gradientTransform="matrix(-.35595 .92217 -.68451 -.25729 285.542 29.094)" gradientUnits="userSpaceOnUse"><stop offset="0" stop-color="#69252a"></stop><stop offset=".149" stop-color="#803639"></stop><stop offset=".459" stop-color="#bb605e"></stop><stop offset=".736" stop-color="#f48a82"></stop></radialGradient><path d="M15.87617,10.69138c0.21432-0.60574,0.60796-0.66087,0.85374-0.07326 c0.17267,0.41286,0.8215,2.16692,1.5493,4.18219c0.75642-0.38934,1.10498-0.60917,1.77254-0.98287 c-0.75278-1.68524-3.07723-6.55469-3.359-6.97177c-0.29693-0.4395-0.29693-0.7325-0.66807-0.07326 c-0.36263,0.64422-5.70865,11.569-6.52721,13.05947c1.19387-0.7241,2.18918-1.45039,3.82764-2.35505 C13.82145,16.11091,14.71499,13.97315,15.87617,10.69138z" class="st1" style="fill:url(#SVGID_1_--inject-46);"></path><radialGradient id="SVGID_2_--inject-46" cx="70.571" cy="374.995" r="22.361" gradientTransform="matrix(-.36844 .91738 -.66558 -.2603 288.573 51.187)" gradientUnits="userSpaceOnUse"><stop offset=".004" stop-color="#793835"></stop><stop offset=".141" stop-color="#904743"></stop><stop offset=".429" stop-color="#cb6e68"></stop><stop offset=".615" stop-color="#f48a82"></stop></radialGradient><path d="M11.24344,23.32683c-1.22772,0.20794-2.1513,0.43835-3.48043,0.69346 c-0.00974,0.02573-0.01938,0.05136-0.02887,0.07596c-0.3358,0.87365-1.65663,4.22458-1.98809,5.38672l3.08852,0.21264 C9.16942,28.77935,10.15304,26.1072,11.24344,23.32683z" class="st2" style="fill:url(#SVGID_2_--inject-46);"></path><radialGradient id="SVGID_3_--inject-46" cx="-8.099" cy="252.283" r="22.837" gradientTransform="matrix(.25765 .95348 -.72177 .18992 205.026 -27.192)" gradientUnits="userSpaceOnUse"><stop offset=".004" stop-color="#793835"></stop><stop offset=".129" stop-color="#803c39"></stop>
<stop offset=".307" stop-color="#934945"></stop><stop offset=".518" stop-color="#b15e58"></stop><stop offset=".751" stop-color="#dc7a73"></stop><stop offset=".868" stop-color="#f48a82"></stop></radialGradient><path d="M23.75592,21.89878c-0.02323-0.05348-0.05832-0.1315-0.10299-0.22942 c-0.92384,0.0785-1.60639,0.18111-2.82716,0.31456c1.17771,2.93351,2.37471,5.97863,2.95204,7.64002l0.00411,0.00278 l3.19196-0.25632l0.01647-0.00785c-0.12883-0.41945-0.45845-1.45489-0.83306-2.33622 C25.67485,25.89096,24.08994,22.66788,23.75592,21.89878z" class="st3" style="fill:url(#SVGID_3_--inject-46);"></path><linearGradient id="SVGID_4_--inject-46" x1="6.538" x2="11.931" y1="-5.47" y2="6.177" gradientTransform="translate(0 24)" gradientUnits="userSpaceOnUse"><stop offset="0" stop-color="#512427"></stop><stop offset=".958" stop-color="#be2c34"></stop></linearGradient><path d="M8.83456,29.69561L8.89839,29.7l2.18987-1.35512c0,0,0.07423-2.93005,0.18559-3.36956 c0.0462-0.18228,0.169-0.87492,0.33129-1.70935c-0.12001,0.02003-0.24058,0.04038-0.36171,0.06087 C10.15304,26.1072,9.16942,28.77935,8.83456,29.69561z" class="st4" style="fill:url(#SVGID_4_--inject-46);"></path><linearGradient id="SVGID_5_--inject-46" x1="25.594" x2="20.732" y1="12.963" y2="-1.545" gradientTransform="translate(0 24)" gradientUnits="userSpaceOnUse"><stop offset="0" stop-color="#512427"></stop><stop offset=".958" stop-color="#be2c34"></stop></linearGradient><path d="M21.85192,26.22062c0.25978,1.28187,0.25978,2.27073,0.25978,2.27073l1.66612,1.1326 c-0.57733-1.66138-1.77433-4.7065-2.95204-7.64001c-0.02333,0.00258-0.04645,0.00511-0.06985,0.00761 C21.3669,23.96811,21.6449,25.19941,21.85192,26.22062z" class="st5" style="fill:url(#SVGID_5_--inject-46);"></path><linearGradient id="SVGID_6_--inject-46" x1="19.638" x2="2.74" y1="-25.008" y2="-1.208" gradientTransform="translate(0 24)" gradientUnits="userSpaceOnUse"><stop offset="0" stop-color="#d22"></stop><stop offset=".043" stop-color="#d32424"></stop><stop offset=".211" stop-color="#ae292d"></stop><stop offset=".348" stop-color="#982d32"></stop><stop offset=".436" stop-color="#902e34"></stop><stop offset=".981" stop-color="#682427"></stop></linearGradient><path d="M13.29341,3c0,0-2.73618,5.01769-4.33215,9.66911c-0.75505,2.20058-1.90154,5.45036-2.77201,8.49294 c-0.115,0.40206-0.22793,0.80036-0.3381,1.19226c-0.15581,0.55462-0.30599,1.09627-0.44811,1.61662 c0.06081-0.10151,0.27381-0.69788,0.64422-1.69463c0.14469-0.38919,0.31339-0.83944,0.50628-1.34496 c1.42188-3.72602,4.16315-10.45833,8.34435-17.93133L13.29341,3L13.29341,3z" class="st6" style="fill:url(#SVGID_6_--inject-46);"></path><path d="M26.45216,21.52283c-0.35718-1.30499-0.75666-2.73501-1.17415-4.16485 c-0.47245-1.61838-1.20612-3.23625-1.68917-4.67183c-0.36102-1.07282-0.79453-2.04391-1.12694-2.8372 C20.42053,4.97779,19.14225,3,19.14225,3h-1.45317c0.73154,1.39067,2.7455,5.28855,4.93461,10.1271 c0.62334,1.37768,1.26078,2.8315,1.88692,4.32547c0.56162,1.34016,1.11408,2.71247,1.63894,4.09102 c0.42442,1.11472,0.83076,2.23343,1.20928,3.34229C27.11279,23.96465,26.80286,22.80419,26.45216,21.52283z" class="st7" style="fill:#e02b2b;"></path><radialGradient id="SVGID_7_--inject-46" cx="-1.348" cy="270.176" r="33.616" gradientTransform="matrix(.24492 .96954 -.64084 .16188 195.63 -35.744)" gradientUnits="userSpaceOnUse"><stop offset="0" stop-color="#d22"></stop><stop offset=".738" stop-color="#942325"></stop><stop offset=".869" stop-color="#822326"></stop><stop offset="1" stop-color="#752326"></stop></radialGradient><path d="M27.93868,26.9898c-0.06179-0.16536-0.27035-0.94559-0.57984-2.10391 c-0.37852-1.10886-0.78485-2.22757-1.20928-3.34229c-0.52487-1.37856-1.07733-2.75086-1.63894-4.09102 c-0.62615-1.49397-1.26359-2.94779-1.88692-4.32547c-2.18911-4.83855-4.20306-8.73643-4.93461-10.1271h-2.7912 c-4.1812,7.473-6.92247,14.20531-8.34435,17.93133c-0.1929,0.50553-0.36159,0.95578-0.50628,1.34496 c-0.3704,0.99674-0.58341,1.59312-0.64422,1.69463c-0.02906,0.10629-0.05775,0.21172-0.08617,0.31621 C4.75563,26.35518,4.33283,28.04771,4.2,28.82101l1.5065,0.65926l0.03954,0.0027c0.33147-1.16213,1.65229-4.51307,1.98809-5.38672 c0.00949-0.0246,0.01913-0.05023,0.02887-0.07596c0.22151-0.58604,0.59142-1.45787,0.90847-2.30901 c0.30868-0.82884,0.79269-1.81883,0.82599-1.87941c0.80935-1.47372,6.16904-12.39007,6.52721-13.05947 c0.16447-0.3075,0.38658-0.39545,0.66807,0.07326c0.24911,0.41469,2.59933,5.2711,3.359,6.97177 c-0.74825,0.37939-8.86323,4.68055-10.55428,6.01443c-0.01918,0.03493-0.57441,1.20393-0.82599,1.87941 c1.64195-0.64889,7.22993-2.82205,13.10479-3.97523c-0.00546-0.00158,0,0,0,0c0.75323,1.61737,1.56989,3.26139,1.87666,3.93331 c0.04467,0.09792,0.07977,0.17594,0.10299,0.22942c0.33402,0.76912,1.91893,3.99218,2.40137,5.12756 c0.3746,0.88133,0.70423,1.91677,0.83306,2.33622l1.46799-0.4683C28.45835,28.89425,28.08888,27.39206,27.93868,26.9898z" class="st8" style="fill:url(#SVGID_7_--inject-46);"></path><linearGradient id="SVGID_8_--inject-46" x1="2.83" x2="27.816" y1="-1.203" y2="-5.091" gradientTransform="translate(0 24)" gradientUnits="userSpaceOnUse"><stop offset="0" stop-color="#512427"></stop><stop offset=".25" stop-color="#752326"></stop><stop offset=".484" stop-color="#942325"></stop><stop offset=".615" stop-color="#982325"></stop><stop offset=".731" stop-color="#a22324"></stop><stop offset=".842" stop-color="#b52324"></stop><stop offset=".949" stop-color="#ce2223"></stop><stop offset="1" stop-color="#d22"></stop></linearGradient><path d="M21.77626,17.73605c-0.77665,0.13661-6.68472,1.26115-13.10479,3.97524 c-0.31184,0.83714-0.68227,1.71061-0.90847,2.30901c1.32913-0.25511,2.25271-0.48552,3.48043-0.69346 c0.12113-0.02048,0.2417-0.04082,0.36171-0.06087c3.55186-0.59407,6.64497-0.99918,9.15078-1.27443 c0.0234-0.0025,0.04652-0.00504,0.06985-0.00762c1.22077-0.13346,1.90332-0.23607,2.82716-0.31456 C23.34615,20.99744,22.52949,19.35342,21.77626,17.73605z" class="st9" style="fill:url(#SVGID_8_--inject-46);"></path><path d="M9.62503,19.75307c0.19968-0.15052,0.40509-0.29354,0.61296-0.43269 c0.10388-0.06968,0.20899-0.13747,0.31357-0.20611l0.31655-0.20149c0.2121-0.13264,0.4253-0.2635,0.63928-0.39306 c0.21411-0.12934,0.42903-0.25734,0.64436-0.38465l0.64801-0.37843l0.65054-0.37403 c0.43445-0.24803,0.86989-0.49431,1.30691-0.73775c0.87423-0.48652,1.75186-0.96684,2.63077-1.44467l1.31897-0.71548 c0.43953-0.23852,0.87977-0.4762,1.3167-0.71822l-0.02501,0.07464c-0.23874-0.52525-0.48764-1.04695-0.73615-1.56858 c-0.24917-0.52139-0.50045-1.04187-0.75311-1.56169c-0.50498-1.03983-1.01436-2.07759-1.525-3.11478l-0.19153-0.38896 L16.69713,7.0126l-0.0478-0.09748l-0.01195-0.02437l-0.00597-0.01219c-0.0014-0.00292,0.0019,0.00354-0.0011-0.00198 l-0.00335-0.00588c-0.00896-0.01593-0.01795-0.03167-0.02637-0.0445c-0.03474-0.05546-0.07684-0.10798-0.12445-0.1452 c-0.0477-0.03753-0.10069-0.05872-0.15215-0.05488c-0.05156,0.00339-0.10358,0.03115-0.14867,0.07321 c-0.04538,0.04182-0.08368,0.09643-0.11605,0.15486c-0.00842,0.01441-0.01562,0.02979-0.02338,0.04475l-0.02397,0.04877 l-0.04774,0.09731l-0.09703,0.19455L15.6718,7.62699l-0.39291,0.77312c-0.52704,1.02904-1.05324,2.05832-1.5756,3.08957 c-0.52237,1.03123-1.041,2.06433-1.55456,3.09991l-0.76926,1.55389c-0.25493,0.51869-0.50908,1.03778-0.76008,1.55837 c-0.2519,0.52017-0.50037,1.04196-0.74725,1.56451c-0.24555,0.52316-0.49114,1.04633-0.73194,1.57171 c-0.2419,0.52489-0.47693,1.05288-0.70876,1.58232c-0.2287,0.53075-0.45499,1.06263-0.66844,1.59993 c0.20284-0.54135,0.41721-1.07846,0.63926-1.61235c0.22398-0.53305,0.45123-1.06482,0.68538-1.59352 c0.11554-0.26505,0.23514-0.52826,0.35252-0.7925l0.36-0.78909c0.24222-0.52504,0.48604-1.04935,0.73329-1.57202 c0.24636-0.52311,0.49586-1.04471,0.74615-1.56592c0.25112-0.52081,0.50171-1.0419,0.75768-1.56033 c0.51062-1.03751,1.02629-2.07251,1.54568-3.10559c0.51937-1.03309,1.04259-2.06424,1.56652-3.09484l0.39415-0.77221 l0.19622-0.38626l0.09705-0.19314l0.04803-0.09717l0.02399-0.04844c0.00885-0.01713,0.01711-0.03444,0.02689-0.05126 c0.0378-0.0675,0.08298-0.13334,0.14401-0.1897c0.05991-0.05569,0.14091-0.10356,0.23495-0.10977 c0.04636-0.00336,0.09322,0.00489,0.13516,0.02052c0.04213,0.01568,0.07955,0.03851,0.11253,0.06442 c0.06604,0.05251,0.11482,0.11539,0.15666,0.18201c0.01121,0.01751,0.02003,0.03322,0.02877,0.04877l0.00334,0.00589 c-0.00075-0.00161,0.0048,0.00878,0.00529,0.00996l0.00593,0.01216l0.01186,0.02432l0.04741,0.09727l0.09525,0.19469 l0.1906,0.38941c0.50823,1.03851,1.01525,2.07768,1.51792,3.11903c0.2515,0.52059,0.50165,1.04188,0.74975,1.56422 c0.24839,0.52226,0.49429,1.04558,0.72957,1.57485l0.02184,0.04913l-0.04686,0.02552 c-0.43981,0.23958-0.88149,0.47403-1.3228,0.70953l-1.32386,0.70613c-0.88209,0.47155-1.76283,0.94555-2.64015,1.42574 l-0.65798,0.36015l-0.65646,0.36291l-0.65452,0.36636l-0.65202,0.37077c-0.21666,0.12476-0.43293,0.2502-0.64841,0.37701 c-0.21534,0.12702-0.42991,0.25534-0.64339,0.38545l-0.31936,0.19653c-0.10553,0.06697-0.21164,0.1331-0.31651,0.20111 C10.03447,19.46591,9.82709,19.60559,9.62503,19.75307z" class="st10" style="fill:#d97871;"></path><path d="M8.73419,21.72374l0.79271-0.3168l0.39677-0.15732l0.19838-0.07866l0.19944-0.07602l0.79804-0.30369 c0.13316-0.05022,0.26574-0.10214,0.3994-0.15097l0.40146-0.14525l0.80328-0.28971l0.80714-0.27889 c0.13463-0.04618,0.26883-0.09366,0.40383-0.13876l0.40547-0.13393l0.4055-0.13394c0.13511-0.04482,0.27024-0.0896,0.40625-0.13168 l0.81551-0.25398l0.81875-0.24352c0.13628-0.0412,0.27332-0.07983,0.41041-0.11828l0.41109-0.11599l0.20555-0.05799 l0.20627-0.05542l0.41264-0.11054c0.13736-0.03753,0.27535-0.07273,0.41346-0.10748l0.4141-0.10513 c0.13812-0.03472,0.27688-0.06693,0.41529-0.10052c0.1385-0.03322,0.27685-0.06709,0.41597-0.09786l0.41716-0.09287 l0.41831-0.08791c0.27948-0.05577,0.55927-0.11081,0.84025-0.15917l0.04201-0.00723l0.01781,0.0384 c0.35992,0.77616,0.72909,1.54821,1.09993,2.31962c0.18501,0.38592,0.37224,0.7708,0.55406,1.15856 c0.09091,0.19385,0.18201,0.38786,0.26809,0.58462l0.12967,0.29361l0.13296,0.29138 c0.35843,0.77682,0.72865,1.54883,1.08923,2.32522l0.53874,1.16569c0.17785,0.38934,0.35371,0.77977,0.51815,1.17498 c-0.08702-0.19553-0.17653-0.38988-0.26783-0.5834l-0.27497-0.58005l-0.55902-1.15581l-0.56089-1.155 c-0.18642-0.38531-0.37292-0.77054-0.5565-1.1575l-0.13669-0.29124l-0.13283-0.29226 c-0.08757-0.19446-0.18047-0.38692-0.27335-0.57957l-0.56034-1.15501c-0.37363-0.77022-0.74575-1.54137-1.10881-2.31705 l0.0598,0.03116c-0.27971,0.04916-0.55815,0.10496-0.83652,0.16154l-0.41674,0.08912l-0.41581,0.09368 c-0.13884,0.03019-0.27699,0.0635-0.41529,0.09616c-0.13822,0.03303-0.27675,0.06466-0.41471,0.09883l-0.41363,0.10346 c-0.13795,0.0342-0.27579,0.06884-0.41304,0.10583l-0.41229,0.10889l-0.20611,0.0546l-0.20542,0.05718l-0.41085,0.11435 c-0.13701,0.03791-0.27397,0.07599-0.41021,0.11665l-0.81847,0.24029l-0.8154,0.25071 c-0.13628,0.04058-0.27172,0.08387-0.40715,0.1272l-0.40646,0.12946l-0.40648,0.12947 c-0.13535,0.04362-0.2699,0.08963-0.40491,0.13433l-0.80941,0.27006l-0.80575,0.28093l-0.40296,0.1403 c-0.13443,0.04648-0.26773,0.09601-0.40166,0.14388l-0.80279,0.28957l-0.20068,0.07251l-0.19973,0.07519l-0.39946,0.15037 L8.73419,21.72374z" class="st10" style="fill:#d97871;"></path></svg>
