<?xml version="1.0" standalone="no"?>
<!DOCTYPE svg PUBLIC "-//W3C//DTD SVG 20010904//EN"
 "http://www.w3.org/TR/2001/REC-SVG-20010904/DTD/svg10.dtd">
<svg version="1.0" xmlns="http://www.w3.org/2000/svg"
 width="900.000000pt" height="123.000000pt" viewBox="0 0 900.000000 123.000000"
 preserveAspectRatio="xMidYMid meet">
<metadata>
Created by potrace 1.10, written by Peter Selinger 2001-2011
</metadata>
<g transform="translate(0.000000,123.000000) scale(0.100000,-0.100000)"
fill="#fff" stroke="none">
<path d="M5936 1199 c-3 -17 -6 -123 -6 -235 0 -175 -2 -204 -15 -204 -8 0
-15 4 -15 9 0 14 -68 54 -115 68 -22 7 -65 13 -95 13 -209 0 -360 -178 -360
-424 0 -178 75 -318 205 -381 46 -23 67 -27 140 -27 72 0 94 4 139 26 29 14
67 42 85 61 37 41 51 44 51 11 0 -13 3 -38 6 -55 7 -32 7 -32 63 -29 l56 3 3
555 c2 305 0 574 -3 598 l-6 42 -63 0 c-63 0 -64 0 -70 -31z m-159 -470 c55
-20 105 -63 129 -111 22 -43 24 -59 24 -183 0 -116 -3 -141 -20 -173 -54 -102
-133 -143 -244 -127 -65 10 -135 74 -164 150 -30 79 -30 205 0 288 45 124 171
195 275 156z"/>
<path d="M275 1171 c-92 -29 -120 -43 -165 -85 -141 -130 -147 -320 -15 -449
57 -55 110 -86 244 -139 50 -20 99 -47 122 -69 34 -31 39 -42 39 -80 -1 -47
-16 -73 -62 -103 -44 -29 -204 -24 -301 9 -41 14 -82 25 -89 25 -15 0 -48
-122 -48 -177 0 -33 3 -35 115 -68 88 -26 308 -24 392 3 125 42 210 121 243
230 24 79 25 105 3 190 -15 56 -27 75 -73 123 -48 49 -179 129 -211 129 -5 0
-42 16 -83 35 -79 37 -126 83 -126 124 0 32 34 76 74 95 48 23 159 21 238 -4
84 -26 96 -26 104 8 3 15 12 47 20 71 22 70 19 97 -13 109 -79 30 -108 34
-223 38 -102 3 -136 0 -185 -15z"/>
<path d="M8555 1180 c-8 -13 3 -30 20 -30 23 0 35 -34 35 -99 0 -62 11 -81 35
-61 11 9 15 33 15 81 0 64 2 70 25 81 50 22 23 38 -65 38 -32 0 -62 -4 -65
-10z"/>
<path d="M8751 1176 c-8 -9 -11 -46 -9 -102 3 -75 6 -89 21 -92 14 -3 17 4 17
35 0 67 15 72 40 15 12 -29 28 -52 35 -52 7 0 22 23 34 50 26 59 41 57 41 -6
0 -38 3 -45 18 -42 14 3 17 17 20 92 3 94 -6 119 -41 114 -13 -2 -26 -20 -41
-55 -20 -50 -46 -71 -46 -38 0 20 -29 78 -44 87 -17 12 -32 9 -45 -6z"/>
<path d="M6345 1163 c-49 -13 -70 -59 -54 -117 9 -31 52 -66 83 -66 49 0 96
51 96 104 0 52 -67 94 -125 79z"/>
<path d="M4615 1140 c-4 -7 -7 -534 -5 -1093 0 -16 19 -17 308 -15 l307 3 3
53 c2 28 2 53 0 54 -2 1 -109 5 -238 8 l-235 5 -3 191 c-2 151 0 194 11 202 9
8 84 13 213 14 l199 3 3 53 c2 28 2 53 0 54 -2 1 -97 4 -213 7 l-210 6 -3 150
c-1 83 0 160 3 173 5 22 6 22 218 22 152 0 216 3 225 12 7 7 12 28 12 48 0 20
-5 41 -12 48 -15 15 -574 17 -583 2z"/>
<path d="M4058 1055 c-3 -3 -40 -14 -84 -26 -43 -11 -84 -25 -91 -31 -7 -5
-13 -40 -15 -76 l-3 -67 -44 -5 c-54 -6 -58 -15 -51 -112 l5 -73 45 -5 45 -5
6 -220 c3 -121 11 -234 16 -251 43 -128 106 -167 273 -166 129 1 140 9 140
107 0 89 -4 95 -59 95 -61 0 -93 18 -108 60 -16 48 -17 352 -1 368 7 7 41 12
84 12 40 0 75 4 78 8 3 5 6 44 7 86 1 57 -2 80 -12 87 -8 5 -46 9 -85 9 -56 0
-73 3 -78 16 -3 9 -6 56 -6 105 l0 89 -28 0 c-16 0 -31 -2 -34 -5z"/>
<path d="M6763 999 l-53 -20 0 -69 c0 -77 -3 -80 -76 -80 l-45 0 3 -52 3 -53
55 -5 55 -5 5 -280 c5 -264 7 -282 28 -322 40 -76 113 -105 237 -95 66 5 83
25 68 83 -9 34 -9 34 -74 37 -54 2 -67 6 -86 27 -30 34 -34 78 -31 330 l3 220
92 5 c51 3 97 10 103 16 6 6 10 29 8 50 l-3 39 -89 3 c-50 2 -96 8 -103 14 -9
7 -13 37 -13 88 0 62 -3 79 -16 84 -9 3 -16 6 -17 5 -1 0 -26 -9 -54 -20z"/>
<path d="M1245 838 c-22 -11 -55 -34 -73 -51 -27 -27 -34 -29 -42 -17 -5 8
-10 24 -10 35 0 12 -5 26 -12 33 -17 17 -182 16 -195 0 -5 -8 -7 -173 -3 -408
l5 -395 109 -3 c69 -2 113 1 120 8 7 7 10 78 8 219 -5 264 1 309 42 356 55 64
138 57 180 -15 19 -32 21 -56 26 -300 l5 -265 118 -3 c116 -3 117 -2 117 20 0
363 6 505 23 536 54 100 187 89 217 -17 5 -20 10 -144 10 -276 0 -132 4 -246
8 -253 6 -9 38 -12 123 -10 l114 3 3 255 c4 335 -6 398 -80 492 -42 54 -103
78 -197 78 -90 0 -143 -21 -207 -80 -24 -22 -48 -40 -53 -40 -5 0 -19 16 -31
35 -35 57 -102 85 -202 85 -64 -1 -92 -6 -123 -22z"/>
<path d="M2475 846 c-22 -8 -52 -16 -66 -20 -15 -3 -36 -14 -48 -23 -22 -18
-22 -19 -7 -78 23 -85 31 -91 92 -64 38 17 70 22 146 23 94 1 97 0 127 -28 59
-57 40 -81 -74 -90 -222 -17 -353 -119 -363 -283 -5 -75 10 -125 54 -180 51
-62 109 -86 208 -86 88 1 133 15 191 59 l35 26 15 -36 16 -37 106 3 107 3 -3
267 c-2 171 -7 287 -15 322 -26 110 -89 183 -189 218 -63 22 -270 25 -332 4z
m283 -501 c3 -74 -21 -119 -75 -142 -100 -41 -187 43 -140 137 19 39 92 70
157 67 l55 -2 3 -60z"/>
<path d="M3518 840 c-20 -11 -56 -42 -79 -70 -23 -28 -45 -47 -48 -44 -3 3 -8
31 -11 62 l-5 57 -100 0 -100 0 0 -405 0 -405 114 -3 c85 -2 117 1 123 10 4 7
8 110 9 228 0 139 5 226 12 245 29 75 73 105 158 110 33 2 65 7 70 12 6 6 8
57 7 114 l-3 104 -55 2 c-39 2 -66 -3 -92 -17z"/>
<path d="M7420 836 c-69 -19 -109 -44 -166 -101 -77 -76 -113 -176 -114 -310
0 -176 84 -318 228 -382 78 -34 218 -36 305 -3 121 46 218 171 239 309 26 180
-33 354 -150 435 -89 61 -231 83 -342 52z m232 -134 c35 -24 55 -48 80 -99 31
-64 33 -73 32 -173 -1 -86 -5 -114 -24 -154 -101 -219 -365 -198 -437 35 -37
119 -11 275 60 355 50 57 91 75 172 71 60 -2 77 -7 117 -35z"/>
<path d="M8354 831 c-23 -11 -61 -42 -84 -70 -24 -28 -47 -48 -51 -44 -4 5 -9
31 -11 58 l-3 50 -58 3 -57 3 2 -398 3 -398 68 -3 c37 -2 68 -2 69 0 1 2 4
125 7 273 l6 270 28 42 c36 57 92 91 153 95 l49 3 0 65 0 65 -40 2 c-22 1 -58
-6 -81 -16z"/>
<path d="M6307 824 c-12 -12 -8 -753 3 -775 9 -15 22 -19 70 -19 59 0 59 0 65
33 3 17 4 196 3 397 l-3 365 -65 3 c-36 2 -69 0 -73 -4z"/>
</g>
</svg>
