<?xml version="1.0" encoding="utf-8"?>
<!-- Generator: Adobe Illustrator 13.0.0, SVG Export Plug-In  -->
<!DOCTYPE svg PUBLIC "-//W3C//DTD SVG 1.1//EN" "http://www.w3.org/Graphics/SVG/1.1/DTD/svg11.dtd" [
	<!ENTITY ns_flows "http://ns.adobe.com/Flows/1.0/">
]>
<svg version="1.1"
	 xmlns="http://www.w3.org/2000/svg" xmlns:xlink="http://www.w3.org/1999/xlink" xmlns:a="http://ns.adobe.com/AdobeSVGViewerExtensions/3.0/"
	 x="0px" y="0px" width="155px" height="69px" viewBox="-0.581 -0.277 155 69" enable-background="new -0.581 -0.277 155 69"
	 xml:space="preserve">
<defs>
<style>
	.letter {fill:#fff}
</style>
</defs>
<path class="letter" fill-rule="evenodd" clip-rule="evenodd" d="M19.6,68.104c0-2.854,0-6.83,0-6.83c0-2.408-0.936-4.959-4.631-4.959
	c-2.479,0-3.789,1.146-4.537,2.293c-0.608-1.473-2.316-2.293-4.023-2.293c-2.362,0-3.625,1.264-4.21,1.988v-1.895H0v11.695h2.198
	v-7.414c0.398-1.193,1.427-2.643,3.626-2.643c1.73,0,3.04,1.332,3.04,3.297c0,0,0,6.244,0,6.76h2.082c0,0,0-6.689,0-6.76
	c0-1.426,1.053-3.297,3.462-3.297c2.175,0,3.017,1.473,3.017,3.367c0,0,0,3.742,0,6.689H19.6L19.6,68.104z"/>
<path class="letter"  fill-rule="evenodd" clip-rule="evenodd" d="M35.714,68.033v-1.404c-0.07,0.025-0.654,0-0.842,0
	c-0.538-0.021-0.749-0.373-0.749-1.309c0-1.824,0-4.047,0-5.123c0-2.666-1.895-3.904-5.262-3.904c-0.187,0-0.351,0-0.538,0.021
	v1.592c0.14,0,0.304,0,0.444,0c2.315,0,3.111,0.771,3.111,1.777c0,0.443-0.468,0.865-3.555,1.17v1.332
	c0.117,0,0.21-0.023,0.328-0.023c1.754-0.164,2.83-0.443,3.321-0.865c-0.024,0.656-0.024,2.035-0.094,2.877
	c-0.117,1.217-1.45,2.34-3.555,2.549v1.404c1.356-0.164,2.666-0.631,3.789-1.637c0.117,0.936,0.538,1.66,1.848,1.66
	C34.545,68.15,35.247,68.08,35.714,68.033L35.714,68.033z M28.324,56.314c-2.456,0.117-4.14,1.123-5.192,2.41l1.263,1.053
	c0.865-1.24,2.362-1.777,3.929-1.871V56.314L28.324,56.314z M28.324,60.854c-0.047,0-0.094,0-0.164,0
	c-2.877,0.256-5.754,0.982-5.754,3.836c0,2.197,1.544,3.508,4.491,3.508c0.468,0,0.959-0.023,1.427-0.07v-1.404
	c-0.234,0.023-0.468,0.023-0.725,0.023c-2.058,0-2.923-0.678-2.923-2.012c0-1.73,1.567-2.314,3.648-2.549V60.854L28.324,60.854z"/>
<path class="letter"  fill-rule="evenodd" clip-rule="evenodd" d="M50.403,64.713l-2.128-0.352c-0.795,1.66-2.082,2.268-4.046,2.268
	c-2.082,0-4.303-1.285-4.303-4.326c0-2.924,1.848-4.443,4.28-4.443c1.848,0,3.368,0.795,3.977,2.199l2.198-0.398
	c-0.772-2.035-2.97-3.367-6.198-3.367c-3.906,0-6.479,2.244-6.479,5.963c0,4.047,2.854,5.918,6.525,5.918
	C47.269,68.174,49.444,67.238,50.403,64.713L50.403,64.713z"/>
<path class="letter"  fill-rule="evenodd" clip-rule="evenodd" d="M60.319,58.186v-1.871c-0.07,0-0.164,0-0.21,0c-2.316,0-3.719,0.914-4.631,2.199
	v-2.082H53.28v11.672h2.198v-7.367c0.702-1.475,2.012-2.666,4.187-2.666C59.852,58.07,60.179,58.141,60.319,58.186L60.319,58.186z"
	/>
<path class="letter"  fill-rule="evenodd" clip-rule="evenodd" d="M75.429,62.256c0-3.859-2.876-5.963-6.783-5.963h-0.023v1.543h0.023
	c2.315,0,4.584,1.355,4.584,4.42c0,2.643-1.731,4.373-4.584,4.373h-0.023v1.568h0.023C72.552,68.197,75.429,65.951,75.429,62.256
	L75.429,62.256z M68.623,56.293c-4.046,0-6.783,2.314-6.783,5.963c0,3.789,2.643,5.941,6.783,5.941v-1.568
	c-2.409,0-4.584-1.379-4.584-4.373c0-2.807,2.105-4.42,4.584-4.42V56.293L68.623,56.293z"/>
<path class="letter"  fill-rule="evenodd" clip-rule="evenodd" d="M98.186,68.104c0-2.854,0-6.83,0-6.83c0-2.408-0.912-4.959-4.631-4.959
	c-2.479,0-3.789,1.146-4.514,2.293c-0.608-1.473-2.339-2.293-4.046-2.293c-2.339,0-3.602,1.264-4.188,1.988v-1.895h-2.198v11.695
	h2.198v-7.414c0.375-1.193,1.404-2.643,3.626-2.643c1.707,0,3.017,1.332,3.017,3.297c0,0,0,6.244,0,6.76h2.082c0,0,0-6.689,0-6.76
	c0-1.426,1.076-3.297,3.484-3.297c2.176,0,2.994,1.473,2.994,3.367c0,0,0,3.742,0,6.689H98.186L98.186,68.104z"/>
<path class="letter"  fill-rule="evenodd" clip-rule="evenodd" d="M114.301,62.701c0.023-4.117-2.503-6.387-6.549-6.408v1.496
	c2.198,0.023,3.952,1.006,4.327,3.555h-4.327v1.357C110.793,62.701,114.301,62.701,114.301,62.701L114.301,62.701z M107.752,68.197
	c3.204,0,5.31-1.428,6.198-3.416l-2.128-0.373c-0.655,1.449-2.082,2.27-4.07,2.27V68.197L107.752,68.197z M107.752,56.293
	c-0.023,0-0.047,0-0.07,0c-3.602,0-6.502,2.314-6.502,5.799c0,4.094,2.666,6.105,6.525,6.105c0.023,0,0.023,0,0.047,0v-1.52
	c-0.023,0-0.023,0-0.047,0c-2.292,0-4.233-1.381-4.327-3.977c0,0,2.059,0,4.374,0v-1.357h-4.327c0.164-2.152,2.222-3.555,4.28-3.555
	c0.023,0,0.023,0,0.047,0V56.293L107.752,56.293z"/>
<path class="letter"  fill-rule="evenodd" clip-rule="evenodd" d="M129.55,68.104V51.357h-2.175c0,0,0,6.76,0,6.875
	c-0.678-0.936-2.245-1.824-4.304-1.918v1.498c0.047,0,0.094,0,0.117,0c2.198,0,4.023,1.496,4.163,2.994
	c0,0.094,0.023,0.865,0.023,1.355c0,0.516-0.023,1.311-0.023,1.404c-0.046,1.52-1.661,3.156-4.14,3.156c-0.047,0-0.094,0-0.141,0
	v1.451c2.292-0.07,3.742-1.053,4.327-1.965v1.895H129.55L129.55,68.104z M123.071,56.314c-0.093,0-0.21,0-0.327,0
	c-3.368,0-6.175,2.152-6.175,5.918c0,3.836,2.644,5.941,6.222,5.941c0.094,0,0.188,0,0.28,0v-1.451
	c-2.269-0.045-4.279-1.426-4.279-4.49c0-2.549,1.543-4.373,4.279-4.42V56.314L123.071,56.314z"/>
<path class="letter" fill-rule="evenodd" clip-rule="evenodd" d="M135.562,54.654V52.41h-2.269v2.244H135.562L135.562,54.654z M135.538,68.104
	V56.408h-2.199v11.695H135.538L135.538,68.104z"/>
<path class="letter" fill-rule="evenodd" clip-rule="evenodd" d="M151.652,68.033v-1.404c-0.069,0.025-0.654,0-0.842,0
	c-0.538-0.021-0.748-0.373-0.748-1.309c0-1.824,0-4.047,0-5.123c0-2.666-1.895-3.904-5.263-3.904c-0.188,0-0.374,0-0.538,0.021
	v1.592c0.141,0,0.305,0,0.444,0c2.315,0,3.11,0.771,3.11,1.777c0,0.443-0.468,0.865-3.555,1.17v1.332
	c0.094,0,0.211-0.023,0.328-0.023c1.753-0.164,2.829-0.443,3.32-0.865c-0.023,0.656-0.023,2.035-0.094,2.877
	c-0.116,1.217-1.449,2.34-3.555,2.549v1.404c1.356-0.164,2.666-0.631,3.789-1.637c0.117,0.936,0.538,1.66,1.848,1.66
	C150.483,68.15,151.185,68.08,151.652,68.033L151.652,68.033z M144.262,56.314c-2.455,0.117-4.14,1.123-5.192,2.41l1.263,1.053
	c0.866-1.24,2.362-1.777,3.93-1.871V56.314L144.262,56.314z M144.262,60.854c-0.047,0-0.094,0-0.164,0
	c-2.876,0.256-5.753,0.982-5.753,3.836c0,2.197,1.543,3.508,4.49,3.508c0.468,0,0.959-0.023,1.427-0.07v-1.404
	c-0.233,0.023-0.468,0.023-0.725,0.023c-2.059,0-2.924-0.678-2.924-2.012c0-1.73,1.567-2.314,3.648-2.549V60.854L144.262,60.854z"/>
<path fill-rule="evenodd" clip-rule="evenodd" d="M88.683,3.895c5.191,5.192,5.191,13.589,0,18.781L65.2,46.134
	c-5.192,5.192-13.589,5.192-18.781,0c-5.192-5.191-5.192-13.588,0-18.757L69.901,3.895C75.093-1.298,83.489-1.298,88.683,3.895
	L88.683,3.895z" style="fill:#fff" />
<path fill-rule="evenodd" clip-rule="evenodd" fill="#4764AF" d="M126.314,4.059l23.482,23.154c5.192,5.192,5.192,13.589,0,18.782
	c-5.192,5.19-13.612,5.19-18.805,0l-14.08-14.385l-14.104,14.385c-5.146,5.19-13.565,5.19-18.757,0
	c-5.193-5.193-5.193-13.59,0-18.782L107.51,4.059C112.702-1.134,121.122-1.134,126.314,4.059L126.314,4.059z"/>
<text  class="letter" transform="matrix(0.9121 0 0 1 134.1602 12.2021)" font-family="'MyriadPro-Regular'" font-size="14.069">®</text>
</svg>
